<svg width="24" height="10" viewBox="0 0 24 10" fill="none" xmlns="http://www.w3.org/2000/svg">
<path d="M21.2816 5.4C20.9072 5.4 20.5568 5.3304 20.2304 5.1912C19.904 5.052 19.616 4.86 19.3664 4.6152C19.1216 4.3656 18.9296 4.0776 18.7904 3.7512C18.6512 3.4248 18.5816 3.0744 18.5816 2.7C18.5816 2.3256 18.6512 1.9752 18.7904 1.6488C18.9296 1.3224 19.1216 1.0368 19.3664 0.792C19.616 0.5424 19.904 0.348 20.2304 0.2088C20.5568 0.0695999 20.9072 0 21.2816 0C21.656 0 22.0064 0.0695999 22.3328 0.2088C22.6592 0.348 22.9448 0.5424 23.1896 0.792C23.4392 1.0368 23.6336 1.3224 23.7728 1.6488C23.912 1.9752 23.9816 2.3256 23.9816 2.7C23.9816 3.0744 23.912 3.4248 23.7728 3.7512C23.6336 4.0776 23.4392 4.3656 23.1896 4.6152C22.9448 4.86 22.6592 5.052 22.3328 5.1912C22.0064 5.3304 21.656 5.4 21.2816 5.4ZM21.2816 4.932C21.5888 4.932 21.8744 4.8744 22.1384 4.7592C22.4072 4.644 22.6424 4.4832 22.844 4.2768C23.0504 4.0704 23.2112 3.8328 23.3264 3.564C23.4416 3.2952 23.4992 3.0072 23.4992 2.7C23.4992 2.3928 23.4416 2.1048 23.3264 1.836C23.2112 1.5672 23.0504 1.3296 22.844 1.1232C22.6424 0.9168 22.4072 0.756 22.1384 0.6408C21.8744 0.5256 21.5888 0.468 21.2816 0.468C20.9744 0.468 20.6864 0.5256 20.4176 0.6408C20.1536 0.756 19.9184 0.9168 19.712 1.1232C19.5104 1.3296 19.352 1.5672 19.2368 1.836C19.1216 2.1048 19.064 2.3928 19.064 2.7C19.064 3.0072 19.1216 3.2952 19.2368 3.564C19.352 3.8328 19.5104 4.0704 19.712 4.2768C19.9184 4.4832 20.1536 4.644 20.4176 4.7592C20.6864 4.8744 20.9744 4.932 21.2816 4.932ZM20.0936 4.248V1.152H21.5192C21.8552 1.152 22.1168 1.2288 22.304 1.3824C22.4912 1.5312 22.5848 1.74 22.5848 2.0088C22.5848 2.4264 22.3112 2.6928 21.764 2.808V2.6928C22.0088 2.6832 22.1984 2.7384 22.3328 2.8584C22.4672 2.9784 22.5344 3.1488 22.5344 3.3696V3.8808C22.5344 3.9288 22.5368 3.984 22.5416 4.0464C22.5512 4.104 22.5608 4.1712 22.5704 4.248H21.9008C21.8912 4.2096 21.884 4.1616 21.8792 4.104C21.8744 4.0416 21.872 3.9672 21.872 3.8808V3.5496C21.872 3.3528 21.8288 3.2088 21.7424 3.1176C21.6608 3.0216 21.5288 2.9736 21.3464 2.9736H20.3528V2.448H21.4832C21.6224 2.448 21.7304 2.4168 21.8072 2.3544C21.884 2.2872 21.9224 2.1912 21.9224 2.0664C21.9224 1.9464 21.884 1.8552 21.8072 1.7928C21.7352 1.7304 21.6272 1.6992 21.4832 1.6992H20.756V4.248H20.0936Z" fill="white"/>
<path d="M15.795 9.412C15.115 9.412 14.523 9.28 14.019 9.016C13.515 8.744 13.123 8.368 12.843 7.888C12.571 7.408 12.435 6.856 12.435 6.232C12.435 5.6 12.571 5.048 12.843 4.576C13.123 4.096 13.511 3.724 14.007 3.46C14.503 3.188 15.079 3.052 15.735 3.052C16.367 3.052 16.915 3.18 17.379 3.436C17.843 3.692 18.203 4.048 18.459 4.504C18.715 4.96 18.843 5.496 18.843 6.112C18.843 6.24 18.839 6.36 18.831 6.472C18.823 6.576 18.811 6.676 18.795 6.772H13.491V5.584H17.343L17.031 5.8C17.031 5.304 16.911 4.94 16.671 4.708C16.439 4.468 16.119 4.348 15.711 4.348C15.239 4.348 14.871 4.508 14.607 4.828C14.351 5.148 14.223 5.628 14.223 6.268C14.223 6.892 14.351 7.356 14.607 7.66C14.871 7.964 15.263 8.116 15.783 8.116C16.071 8.116 16.319 8.068 16.527 7.972C16.735 7.876 16.891 7.72 16.995 7.504H18.687C18.487 8.096 18.143 8.564 17.655 8.908C17.175 9.244 16.555 9.412 15.795 9.412Z" fill="white"/>
<path d="M11.5147 9.41201C10.9307 9.41201 10.4547 9.27601 10.0867 9.00401C9.72665 8.73201 9.51465 8.36001 9.45065 7.88801L9.54665 7.87601V9.29201H7.78265V0.652008H9.58265V4.52801L9.47465 4.50401C9.56265 4.05601 9.79465 3.70401 10.1707 3.44801C10.5547 3.18401 11.0347 3.05201 11.6107 3.05201C12.1627 3.05201 12.6387 3.18401 13.0387 3.44801C13.4467 3.70401 13.7587 4.06801 13.9747 4.54001C14.1987 5.01201 14.3107 5.56801 14.3107 6.20801C14.3107 6.85601 14.1947 7.42001 13.9627 7.90001C13.7307 8.38001 13.4067 8.75201 12.9907 9.01601C12.5747 9.28001 12.0827 9.41201 11.5147 9.41201ZM11.0107 7.97201C11.4347 7.97201 11.7787 7.82001 12.0427 7.51601C12.3067 7.21201 12.4387 6.78001 12.4387 6.22001C12.4387 5.66001 12.3027 5.23201 12.0307 4.93601C11.7667 4.64001 11.4187 4.49201 10.9867 4.49201C10.5707 4.49201 10.2267 4.64401 9.95465 4.94801C9.69065 5.24401 9.55865 5.67201 9.55865 6.23201C9.55865 6.79201 9.69065 7.22401 9.95465 7.52801C10.2267 7.82401 10.5787 7.97201 11.0107 7.97201Z" fill="white"/>
<path d="M0 9.29201V0.652008H2.88L5.28 8.98001H4.236L6.636 0.652008H9.528V9.29201H7.704V1.16801H8.016L5.676 9.29201H3.768L1.452 1.24001H1.752V9.29201H0Z" fill="white"/>
</svg>
